<?xml version="1.0" encoding="utf-8"?>
<!-- Generator: Adobe Illustrator 18.0.0, SVG Export Plug-In . SVG Version: 6.00 Build 0)  -->
<!DOCTYPE svg PUBLIC "-//W3C//DTD SVG 1.1//EN" "http://www.w3.org/Graphics/SVG/1.1/DTD/svg11.dtd" [
	<!ENTITY st0 "fill:#333333;">
	<!ENTITY st1 "enable-background:new    ;">
	<!ENTITY st2 "fill:#FFFFFF;">
]>
<svg version="1.1" id="Layer_1" xmlns="http://www.w3.org/2000/svg" xmlns:xlink="http://www.w3.org/1999/xlink" x="0px" y="0px"
	 viewBox="0 0 1024 256" style="enable-background:new 0 0 1024 256;" xml:space="preserve">
<rect style="&st0;" width="1024" height="256"/>
<g style="&st1;">
	<path style="&st2;" d="M118.9,78.4l19.1,78.3h0.4l19.3-78.3h27.2V185h-20.7v-31l1.8-41.5l-0.4-0.1L145.1,185h-13.8l-20.1-71.9
		l-0.4,0.1l1.8,40.9v31H91.8V78.4H118.9z"/>
	<path style="&st2;" d="M221.1,86.6h-20.8V70.7h20.8V86.6z M221.1,185h-20.8v-79.2h20.8V185z"/>
	<path style="&st2;" d="M260.4,86v19.7h11v15.1h-11v39.8c0,3.2,0.5,5.5,1.4,6.9c0.9,1.4,2.2,2.1,3.8,2.1c1.3,0,2.3-0.1,3.2-0.2
		c0.9-0.1,1.9-0.3,2.9-0.6l1.6,15.8c-2.2,0.7-4.3,1.2-6.3,1.5c-2,0.3-4.3,0.4-6.8,0.4c-6.7,0-11.8-2.1-15.3-6.2
		c-3.5-4.1-5.3-10.7-5.3-19.7v-39.8h-9.4v-15.1h9.4V86H260.4z"/>
	<path style="&st2;" d="M279.1,140.5c0-10.6,2.8-19.3,8.5-26.1s13.5-10.1,23.7-10.1c10.2,0,18.1,3.4,23.7,10.1
		c5.7,6.8,8.5,15.5,8.5,26.1v9.8c0,10.7-2.8,19.5-8.5,26.1c-5.7,6.7-13.5,10-23.7,10c-10.2,0-18.1-3.3-23.8-10
		c-5.6-6.7-8.5-15.4-8.5-26.1V140.5z M299.8,150.3c0,6.1,0.9,10.9,2.6,14.4c1.7,3.5,4.7,5.2,8.9,5.2c4.1,0,7-1.7,8.8-5.2
		c1.7-3.5,2.6-8.3,2.6-14.3v-9.8c0-6-0.9-10.7-2.6-14.3c-1.7-3.5-4.7-5.3-8.8-5.3c-4.2,0-7.1,1.8-8.8,5.4c-1.7,3.6-2.6,8.3-2.6,14.2
		V150.3z"/>
	<path style="&st2;" d="M383.4,169.9c2.8,0,5-1,6.4-3.1c1.4-2.1,2.2-5.1,2.2-9.1h18.9l0.2,0.4c0.1,8.3-2.4,15.1-7.7,20.4
		c-5.2,5.3-11.9,8-20,8c-10.3,0-18.1-3.3-23.6-10c-5.5-6.7-8.2-15.3-8.2-25.9v-10.2c0-10.5,2.7-19.2,8.2-26
		c5.5-6.8,13.3-10.1,23.5-10.1c8.6,0,15.4,2.8,20.5,8.3c5.1,5.5,7.5,13,7.4,22.3l-0.1,0.4h-19c0-4.3-0.7-7.8-2.2-10.4
		c-1.4-2.6-3.6-3.9-6.6-3.9c-4.2,0-7,1.8-8.6,5.3c-1.6,3.5-2.3,8.2-2.3,14.2v10.2c0,6.1,0.8,10.8,2.3,14.2
		C376.2,168.2,379.2,169.9,383.4,169.9z"/>
	<path style="&st2;" d="M441.3,115.2c2.1-3.5,4.5-6.2,7.4-8.1c2.9-1.9,6.1-2.9,9.5-2.9c7,0,12.5,2.8,16.6,8.4c4,5.6,6,14.2,6,25.9
		V185h-20.9v-46.6c0-6.5-0.8-11.1-2.3-13.6c-1.5-2.5-3.9-3.8-7.2-3.8c-2,0-3.7,0.4-5.2,1.3c-1.5,0.9-2.8,2-3.9,3.6V185h-20.8V70.7
		h20.8V115.2z"/>
	<path style="&st2;" d="M491.5,140.5c0-10.6,2.8-19.3,8.5-26.1s13.5-10.1,23.7-10.1c10.2,0,18.1,3.4,23.7,10.1
		c5.7,6.8,8.5,15.5,8.5,26.1v9.8c0,10.7-2.8,19.5-8.5,26.1c-5.7,6.7-13.5,10-23.7,10c-10.2,0-18.1-3.3-23.8-10
		c-5.6-6.7-8.5-15.4-8.5-26.1V140.5z M512.2,150.3c0,6.1,0.9,10.9,2.6,14.4c1.7,3.5,4.7,5.2,8.9,5.2c4.1,0,7-1.7,8.8-5.2
		c1.7-3.5,2.6-8.3,2.6-14.3v-9.8c0-6-0.9-10.7-2.6-14.3c-1.7-3.5-4.7-5.3-8.8-5.3c-4.2,0-7.1,1.8-8.8,5.4c-1.7,3.6-2.6,8.3-2.6,14.2
		V150.3z"/>
	<path style="&st2;" d="M585.9,105.8l0.9,10.9c2.2-3.9,4.9-6.9,8.1-9.1c3.2-2.2,6.7-3.3,10.6-3.3c6.6,0,11.8,2.5,15.6,7.6
		c3.8,5.1,5.7,13.1,5.7,24V185h-20.9v-49.2c0-5.5-0.8-9.3-2.3-11.5s-3.9-3.3-7.1-3.3c-1.9,0-3.6,0.5-5.1,1.5c-1.6,1-2.9,2.3-4,4V185
		h-20.8v-79.2H585.9z"/>
	<path style="&st2;" d="M637,145.8c0-12.5,2.3-22.5,6.9-30.1c4.6-7.6,11.1-11.4,19.4-11.4c3.1,0,5.9,0.7,8.3,2.2s4.7,3.6,6.7,6.3
		v-42h20.8V185H681l-1.4-8.6c-2.1,3.3-4.4,5.8-7.1,7.6c-2.7,1.7-5.8,2.6-9.3,2.6c-8.3,0-14.8-3.6-19.4-10.7
		c-4.6-7.2-6.8-16.6-6.8-28.5V145.8z M657.8,147.4c0,7.1,0.8,12.6,2.5,16.6c1.6,4,4.4,6,8.3,6c2.1,0,4-0.5,5.6-1.5
		c1.6-1,3-2.5,4.1-4.4v-36.1c-1.1-2.2-2.5-3.9-4.1-5.1s-3.4-1.8-5.5-1.8c-3.9,0-6.6,2.3-8.3,6.8c-1.7,4.6-2.6,10.6-2.6,18.1V147.4z"
		/>
	<path style="&st2;" d="M750.1,124.7l-7.8-0.2c-2.2,0-4,0.5-5.5,1.6c-1.4,1.1-2.6,2.6-3.3,4.5V185h-20.8v-79.2H732l0.8,10.6l0.4,0.1
		c1.3-3.8,3-6.8,5.3-9s4.9-3.3,7.9-3.3c0.9,0,1.9,0.1,3,0.3c1,0.2,2,0.4,2.7,0.6L750.1,124.7z"/>
	<path style="&st2;" d="M782.4,86.6h-20.8V70.7h20.8V86.6z M782.4,185h-20.8v-79.2h20.8V185z"/>
	<path style="&st2;" d="M794.4,140.5c0-10.6,2.8-19.3,8.5-26.1s13.5-10.1,23.7-10.1c10.2,0,18.1,3.4,23.7,10.1
		c5.7,6.8,8.5,15.5,8.5,26.1v9.8c0,10.7-2.8,19.5-8.5,26.1c-5.7,6.7-13.5,10-23.7,10c-10.2,0-18.1-3.3-23.8-10
		c-5.6-6.7-8.5-15.4-8.5-26.1V140.5z M815.1,150.3c0,6.1,0.9,10.9,2.6,14.4c1.7,3.5,4.7,5.2,8.9,5.2c4.1,0,7-1.7,8.8-5.2
		c1.7-3.5,2.6-8.3,2.6-14.3v-9.8c0-6-0.9-10.7-2.6-14.3c-1.7-3.5-4.7-5.3-8.8-5.3c-4.2,0-7.1,1.8-8.8,5.4c-1.7,3.6-2.6,8.3-2.6,14.2
		V150.3z"/>
	<path style="&st2;" d="M888.8,105.8l0.9,10.9c2.2-3.9,4.9-6.9,8.1-9.1c3.2-2.2,6.7-3.3,10.6-3.3c6.6,0,11.8,2.5,15.6,7.6
		c3.8,5.1,5.7,13.1,5.7,24V185h-20.9v-49.2c0-5.5-0.8-9.3-2.3-11.5s-3.9-3.3-7.1-3.3c-1.9,0-3.6,0.5-5.1,1.5c-1.6,1-2.9,2.3-4,4V185
		h-20.8v-79.2H888.8z"/>
</g>
</svg>
