<?xml version="1.0" encoding="utf-8"?>
<!-- Generator: Adobe Illustrator 18.0.0, SVG Export Plug-In . SVG Version: 6.00 Build 0)  -->
<!DOCTYPE svg PUBLIC "-//W3C//DTD SVG 1.1//EN" "http://www.w3.org/Graphics/SVG/1.1/DTD/svg11.dtd" [
	<!ENTITY st0 "fill:#333333;">
	<!ENTITY st1 "enable-background:new    ;">
	<!ENTITY st2 "fill:#FFFFFF;">
]>
<svg version="1.1" id="Layer_1" xmlns="http://www.w3.org/2000/svg" xmlns:xlink="http://www.w3.org/1999/xlink" x="0px" y="0px"
	 viewBox="0 0 1024 256" style="enable-background:new 0 0 1024 256;" xml:space="preserve">
<rect style="&st0;" width="1024" height="256"/>
<g style="&st1;">
	<path style="&st2;" d="M193.8,78.4l19.1,78.3h0.4l19.3-78.3h27.2V185h-20.7v-31l1.8-41.5l-0.4-0.1L220.1,185h-13.8l-20.1-71.9
		l-0.4,0.1l1.8,40.9v31h-20.7V78.4H193.8z"/>
	<path style="&st2;" d="M296.1,86.6h-20.8V70.7h20.8V86.6z M296.1,185h-20.8v-79.2h20.8V185z"/>
	<path style="&st2;" d="M339.5,169.9c2.8,0,5-1,6.4-3.1c1.4-2.1,2.2-5.1,2.2-9.1H367l0.2,0.4c0.1,8.3-2.4,15.1-7.7,20.4
		c-5.2,5.3-11.9,8-20,8c-10.3,0-18.1-3.3-23.6-10c-5.5-6.7-8.2-15.3-8.2-25.9v-10.2c0-10.5,2.7-19.2,8.2-26
		c5.5-6.8,13.3-10.1,23.5-10.1c8.6,0,15.4,2.8,20.5,8.3c5.1,5.5,7.5,13,7.4,22.3l-0.1,0.4h-19c0-4.3-0.7-7.8-2.2-10.4
		c-1.4-2.6-3.6-3.9-6.6-3.9c-4.2,0-7,1.8-8.6,5.3c-1.6,3.5-2.3,8.2-2.3,14.2v10.2c0,6.1,0.8,10.8,2.3,14.2
		C332.3,168.2,335.2,169.9,339.5,169.9z"/>
	<path style="&st2;" d="M414.6,124.7l-7.8-0.2c-2.2,0-4,0.5-5.5,1.6c-1.4,1.1-2.6,2.6-3.3,4.5V185h-20.8v-79.2h19.4l0.8,10.6
		l0.4,0.1c1.3-3.8,3-6.8,5.3-9s4.9-3.3,7.9-3.3c0.9,0,1.9,0.1,3,0.3c1,0.2,2,0.4,2.7,0.6L414.6,124.7z"/>
	<path style="&st2;" d="M421.2,140.5c0-10.6,2.8-19.3,8.5-26.1s13.5-10.1,23.7-10.1c10.2,0,18.1,3.4,23.7,10.1
		c5.7,6.8,8.5,15.5,8.5,26.1v9.8c0,10.7-2.8,19.5-8.5,26.1c-5.7,6.7-13.5,10-23.7,10c-10.2,0-18.1-3.3-23.8-10
		c-5.6-6.7-8.5-15.4-8.5-26.1V140.5z M442,150.3c0,6.1,0.9,10.9,2.6,14.4c1.7,3.5,4.7,5.2,8.9,5.2c4.1,0,7-1.7,8.8-5.2
		c1.7-3.5,2.6-8.3,2.6-14.3v-9.8c0-6-0.9-10.7-2.6-14.3c-1.7-3.5-4.7-5.3-8.8-5.3c-4.2,0-7.1,1.8-8.8,5.4c-1.7,3.6-2.6,8.3-2.6,14.2
		V150.3z"/>
	<path style="&st2;" d="M521.4,86v19.7h11v15.1h-11v39.8c0,3.2,0.5,5.5,1.4,6.9c0.9,1.4,2.2,2.1,3.8,2.1c1.3,0,2.3-0.1,3.2-0.2
		c0.9-0.1,1.9-0.3,2.9-0.6l1.6,15.8c-2.2,0.7-4.3,1.2-6.3,1.5c-2,0.3-4.3,0.4-6.8,0.4c-6.7,0-11.8-2.1-15.3-6.2
		c-3.5-4.1-5.3-10.7-5.3-19.7v-39.8h-9.4v-15.1h9.4V86H521.4z"/>
	<path style="&st2;" d="M584.3,175.8c-2.1,3.5-4.8,6.1-7.8,7.9c-3.1,1.8-6.5,2.7-10.4,2.7c-7.1,0-12.6-2.7-16.6-8
		c-4-5.3-6-13.6-6-24.9v-47.9h20.8v48.1c0,5.6,0.7,9.7,2.1,12.2c1.4,2.5,3.4,3.8,6.1,3.8c2.3,0,4.3-0.4,6-1.3
		c1.7-0.9,3.2-2.1,4.4-3.8v-59.1h20.9V185h-18.3L584.3,175.8z"/>
	<path style="&st2;" d="M679,151.5c0,10.7-2.2,19.2-6.6,25.6c-4.4,6.3-10.9,9.5-19.4,9.5c-3.7,0-6.9-0.9-9.7-2.6
		c-2.8-1.7-5.1-4.2-7.1-7.5L635,185h-18V70.7h20.8v41.7c1.9-2.6,4-4.7,6.6-6.1c2.5-1.4,5.4-2.1,8.5-2.1c8.6,0,15.1,3.3,19.6,9.9
		c4.4,6.6,6.7,15.4,6.7,26.5V151.5z M658.3,140.6c0-6.2-0.8-11.1-2.3-14.5c-1.5-3.5-4.4-5.2-8.5-5.2c-2.2,0-4.2,0.6-5.8,1.7
		c-1.6,1.1-2.9,2.7-4,4.8v37c1,1.8,2.3,3.2,3.9,4.1c1.6,0.9,3.6,1.4,5.9,1.4c4.2,0,7-1.6,8.5-4.7c1.5-3.1,2.2-7.7,2.2-13.8V140.6z"
		/>
	<path style="&st2;" d="M730,175.8c-2.1,3.5-4.8,6.1-7.8,7.9c-3.1,1.8-6.5,2.7-10.4,2.7c-7.1,0-12.6-2.7-16.6-8
		c-4-5.3-6-13.6-6-24.9v-47.9h20.8v48.1c0,5.6,0.7,9.7,2.1,12.2c1.4,2.5,3.4,3.8,6.1,3.8c2.3,0,4.3-0.4,6-1.3
		c1.7-0.9,3.2-2.1,4.4-3.8v-59.1h20.9V185h-18.3L730,175.8z"/>
	<path style="&st2;" d="M784.4,185h-20.8V70.7h20.8V185z"/>
	<path style="&st2;" d="M829.8,186.5c-10,0-17.9-3.3-23.7-9.8c-5.9-6.5-8.8-14.8-8.8-24.8v-11.1c0-10.7,2.7-19.5,8.2-26.3
		c5.4-6.8,13-10.3,22.6-10.3c9.3,0,16.5,3.1,21.5,9.3c5.1,6.2,7.6,14.6,7.6,25.3v12.7H818v0.3c0,5.2,1.2,9.5,3.6,12.9
		c2.4,3.4,5.9,5.1,10.7,5.1c3.9,0,7.1-0.4,9.5-1.3c2.4-0.9,5.3-2.3,8.7-4.4l5.3,13.3c-2.7,2.6-6.4,4.8-11,6.5
		C840.3,185.7,835.2,186.5,829.8,186.5z M828,120.9c-3.3,0-5.8,1.5-7.3,4.6c-1.6,3-2.4,7.1-2.6,12.3h18.7v-2.9
		c0-4.4-0.7-7.8-2.1-10.3C833.3,122.1,831.1,120.9,828,120.9z"/>
</g>
</svg>
