<?xml version="1.0" encoding="utf-8"?>
<!-- Generator: Adobe Illustrator 18.0.0, SVG Export Plug-In . SVG Version: 6.00 Build 0)  -->
<!DOCTYPE svg PUBLIC "-//W3C//DTD SVG 1.1//EN" "http://www.w3.org/Graphics/SVG/1.1/DTD/svg11.dtd" [
	<!ENTITY st0 "fill:#333333;">
	<!ENTITY st1 "enable-background:new    ;">
	<!ENTITY st2 "fill:#FFFFFF;">
]>
<svg version="1.1" id="Layer_1" xmlns="http://www.w3.org/2000/svg" xmlns:xlink="http://www.w3.org/1999/xlink" x="0px" y="0px"
	 viewBox="0 0 1024 256" style="enable-background:new 0 0 1024 256;" xml:space="preserve">
<rect style="&st0;" width="1024" height="256"/>
<g style="&st1;">
	<path style="&st2;" d="M254.8,142.6V185H234V78.4h34.8c10.5,0,18.7,2.8,24.7,8.3c6,5.5,9,13.2,9,23.1c0,5.6-1.2,10.4-3.7,14.4
		c-2.5,4-6.1,7.2-10.9,9.6c5.5,1.9,9.4,4.9,11.8,9.2c2.4,4.3,3.6,9.7,3.6,16.1v7.5c0,2.9,0.3,6.1,1,9.4c0.7,3.3,1.9,5.8,3.6,7.3v1.5
		h-21.5c-1.7-1.6-2.8-4.1-3.2-7.6s-0.7-7.1-0.7-10.8v-7.3c0-5.3-1.1-9.4-3.3-12.4c-2.2-2.9-5.3-4.4-9.3-4.4H254.8z M254.8,126h13.9
		c4.2,0,7.5-1.3,9.7-3.9c2.2-2.6,3.3-6.3,3.3-11.1c0-4.9-1.1-8.8-3.3-11.6c-2.2-2.9-5.4-4.3-9.6-4.3h-14V126z"/>
	<path style="&st2;" d="M315.2,140.5c0-10.6,2.8-19.3,8.5-26.1s13.5-10.1,23.7-10.1c10.2,0,18.1,3.4,23.7,10.1
		c5.7,6.8,8.5,15.5,8.5,26.1v9.8c0,10.7-2.8,19.5-8.5,26.1c-5.7,6.7-13.5,10-23.7,10c-10.2,0-18.1-3.3-23.8-10
		c-5.6-6.7-8.5-15.4-8.5-26.1V140.5z M335.9,150.3c0,6.1,0.9,10.9,2.6,14.4c1.7,3.5,4.7,5.2,8.9,5.2c4.1,0,7-1.7,8.8-5.2
		c1.7-3.5,2.6-8.3,2.6-14.3v-9.8c0-6-0.9-10.7-2.6-14.3c-1.7-3.5-4.7-5.3-8.8-5.3c-4.2,0-7.1,1.8-8.8,5.4c-1.7,3.6-2.6,8.3-2.6,14.2
		V150.3z"/>
	<path style="&st2;" d="M430.8,175.8c-2.1,3.5-4.8,6.1-7.8,7.9c-3.1,1.8-6.5,2.7-10.4,2.7c-7.1,0-12.6-2.7-16.6-8
		c-4-5.3-6-13.6-6-24.9v-47.9h20.8v48.1c0,5.6,0.7,9.7,2.1,12.2c1.4,2.5,3.4,3.8,6.1,3.8c2.3,0,4.3-0.4,6-1.3
		c1.7-0.9,3.2-2.1,4.4-3.8v-59.1h20.9V185H432L430.8,175.8z"/>
	<path style="&st2;" d="M460.6,141.7c0-11.2,2.3-20.2,6.9-27.1s11.1-10.3,19.5-10.3c3.5,0,6.6,0.9,9.3,2.7c2.7,1.8,5,4.3,7,7.7
		l1.3-8.9h18.1v77.7c0,10.4-3,18.6-9,24.6c-6,6-14.3,9-24.8,9c-3.4,0-7.1-0.5-10.9-1.6c-3.9-1.1-7.4-2.6-10.8-4.4l3.7-16
		c2.8,1.6,5.6,2.7,8.5,3.5c2.9,0.8,6,1.2,9.4,1.2c4.4,0,7.7-1.4,9.9-4.1c2.2-2.8,3.3-6.8,3.3-12v-4.5c-2,2.5-4.2,4.5-6.7,5.8
		c-2.5,1.3-5.3,1.9-8.4,1.9c-8.3,0-14.8-3.2-19.4-9.6c-4.6-6.4-6.9-14.9-6.9-25.5V141.7z M481.4,151.5c0,5.8,0.8,10.3,2.5,13.5
		c1.7,3.3,4.4,4.9,8.3,4.9c2.1,0,4-0.4,5.7-1.3c1.6-0.9,3-2.2,4.1-3.9v-37.6c-1.1-2-2.4-3.5-4-4.5c-1.6-1.1-3.5-1.6-5.6-1.6
		c-3.9,0-6.7,1.9-8.4,5.7c-1.7,3.8-2.6,8.8-2.6,15.1V151.5z"/>
	<path style="&st2;" d="M556.4,115.2c2.1-3.5,4.5-6.2,7.4-8.1c2.9-1.9,6.1-2.9,9.5-2.9c7,0,12.5,2.8,16.6,8.4c4,5.6,6,14.2,6,25.9
		V185H575v-46.6c0-6.5-0.8-11.1-2.3-13.6c-1.5-2.5-3.9-3.8-7.2-3.8c-2,0-3.7,0.4-5.2,1.3c-1.5,0.9-2.8,2-3.9,3.6V185h-20.8V70.7
		h20.8V115.2z"/>
	<path style="&st2;" d="M700,138.2h-35.8v30.2h42.1V185h-63V78.4h62.8V95h-42v26.6H700V138.2z"/>
	<path style="&st2;" d="M738,142.6V185h-20.8V78.4H752c10.5,0,18.7,2.8,24.7,8.3c6,5.5,9,13.2,9,23.1c0,5.6-1.2,10.4-3.7,14.4
		c-2.5,4-6.1,7.2-10.9,9.6c5.5,1.9,9.4,4.9,11.8,9.2c2.4,4.3,3.6,9.7,3.6,16.1v7.5c0,2.9,0.3,6.1,1,9.4c0.7,3.3,1.9,5.8,3.6,7.3v1.5
		h-21.5c-1.7-1.6-2.8-4.1-3.2-7.6s-0.7-7.1-0.7-10.8v-7.3c0-5.3-1.1-9.4-3.3-12.4c-2.2-2.9-5.3-4.4-9.3-4.4H738z M738,126h13.9
		c4.2,0,7.5-1.3,9.7-3.9c2.2-2.6,3.3-6.3,3.3-11.1c0-4.9-1.1-8.8-3.3-11.6c-2.2-2.9-5.4-4.3-9.6-4.3h-14V126z"/>
</g>
</svg>
