<?xml version="1.0" encoding="utf-8"?>
<!-- Generator: Adobe Illustrator 18.0.0, SVG Export Plug-In . SVG Version: 6.00 Build 0)  -->
<!DOCTYPE svg PUBLIC "-//W3C//DTD SVG 1.1//EN" "http://www.w3.org/Graphics/SVG/1.1/DTD/svg11.dtd" [
	<!ENTITY st0 "fill:#333333;">
	<!ENTITY st1 "enable-background:new    ;">
	<!ENTITY st2 "fill:#FFFFFF;">
]>
<svg version="1.1" id="Layer_1" xmlns="http://www.w3.org/2000/svg" xmlns:xlink="http://www.w3.org/1999/xlink" x="0px" y="0px"
	 viewBox="0 0 1024 256" style="enable-background:new 0 0 1024 256;" xml:space="preserve">
<rect style="&st0;" width="1024" height="256"/>
<g style="&st1;">
	<path style="&st2;" d="M126.7,169.2c-2.9,4.6-7.2,8.6-13,12.1c-5.8,3.5-13.1,5.2-21.9,5.2c-11.4,0-20.6-3.3-27.5-10
		c-6.9-6.7-10.4-16.2-10.4-28.6v-32.5c0-12.3,3.3-21.8,10-28.5s15.5-10.1,26.5-10.1c11.8,0,20.7,2.9,26.6,8.7
		c5.9,5.8,9,14.1,9.2,24.8l-0.1,0.4h-19.6c-0.1-6-1.5-10.4-4-13.2c-2.5-2.8-6.4-4.1-11.5-4.1c-5.1,0-9.1,1.8-11.9,5.4
		c-2.9,3.6-4.3,9.1-4.3,16.4v32.7c0,7.5,1.5,13,4.4,16.6c2.9,3.6,7.1,5.4,12.7,5.4c4.1,0,7.2-0.6,9.2-1.7c2-1.1,3.6-2.8,4.9-5v-19.1
		H91.8v-14.6h34.9V169.2z"/>
	<path style="&st2;" d="M138.6,140.5c0-10.6,2.8-19.3,8.5-26.1s13.5-10.1,23.7-10.1c10.2,0,18.1,3.4,23.7,10.1
		c5.7,6.8,8.5,15.5,8.5,26.1v9.8c0,10.7-2.8,19.5-8.5,26.1c-5.7,6.7-13.5,10-23.7,10c-10.2,0-18.1-3.3-23.8-10
		c-5.6-6.7-8.5-15.4-8.5-26.1V140.5z M159.4,150.3c0,6.1,0.9,10.9,2.6,14.4c1.7,3.5,4.7,5.2,8.9,5.2c4.1,0,7-1.7,8.8-5.2
		c1.7-3.5,2.6-8.3,2.6-14.3v-9.8c0-6-0.9-10.7-2.6-14.3c-1.7-3.5-4.7-5.3-8.8-5.3c-4.2,0-7.1,1.8-8.8,5.4c-1.7,3.6-2.6,8.3-2.6,14.2
		V150.3z"/>
	<path style="&st2;" d="M235.7,185h-20.8V70.7h20.8V185z"/>
	<path style="&st2;" d="M247.5,141.7c0-11.2,2.3-20.2,6.9-27.1s11.1-10.3,19.5-10.3c3.5,0,6.6,0.9,9.3,2.7c2.7,1.8,5,4.3,7,7.7
		l1.3-8.9h18.1v77.7c0,10.4-3,18.6-9,24.6c-6,6-14.3,9-24.8,9c-3.4,0-7.1-0.5-10.9-1.6c-3.9-1.1-7.4-2.6-10.8-4.4l3.7-16
		c2.8,1.6,5.6,2.7,8.5,3.5c2.9,0.8,6,1.2,9.4,1.2c4.4,0,7.7-1.4,9.9-4.1c2.2-2.8,3.3-6.8,3.3-12v-4.5c-2,2.5-4.2,4.5-6.7,5.8
		c-2.5,1.3-5.3,1.9-8.4,1.9c-8.3,0-14.8-3.2-19.4-9.6c-4.6-6.4-6.9-14.9-6.9-25.5V141.7z M268.3,151.5c0,5.8,0.8,10.3,2.5,13.5
		c1.7,3.3,4.4,4.9,8.3,4.9c2.1,0,4-0.4,5.7-1.3c1.6-0.9,3-2.2,4.1-3.9v-37.6c-1.1-2-2.4-3.5-4-4.5c-1.6-1.1-3.5-1.6-5.6-1.6
		c-3.9,0-6.7,1.9-8.4,5.7c-1.7,3.8-2.6,8.8-2.6,15.1V151.5z"/>
	<path style="&st2;" d="M344.8,86.6H324V70.7h20.8V86.6z M344.8,185H324v-79.2h20.8V185z"/>
	<path style="&st2;" d="M430.8,185c-0.6-1.3-1.1-2.8-1.6-4.3c-0.5-1.6-0.8-3.1-1.1-4.8c-2,3.2-4.3,5.8-7.1,7.7
		c-2.8,1.9-6.1,2.9-9.8,2.9c-6.5,0-11.8-2.1-15.7-6.4c-3.9-4.3-5.9-10-5.9-17.2c0-7.8,2.5-13.8,7.5-18.1c5-4.3,12.4-6.4,22.3-6.4
		h7.8v-6.4c0-3.9-0.7-6.8-2.1-8.9c-1.4-2.1-3.5-3.1-6.3-3.1c-2.3,0-4.1,0.8-5.3,2.5c-1.2,1.7-1.8,4.1-1.8,7.3l-20.1-0.1l-0.2-0.4
		c-0.2-6.9,2.3-12.7,7.7-17.6s12.4-7.3,21.1-7.3c8.3,0,15,2.4,20.1,7.2c5.2,4.8,7.7,11.7,7.7,20.5v32.1c0,3.9,0.3,7.5,0.8,10.9
		c0.5,3.4,1.4,6.7,2.5,10H430.8z M417.2,170.9c2.1,0,4-0.6,5.8-1.7c1.8-1.1,3.2-2.6,4.2-4.3v-14.6h-7.8c-3.2,0-5.5,1.1-6.9,3.3
		c-1.4,2.2-2.1,5-2.1,8.3c0,2.6,0.6,4.8,1.8,6.4C413.5,170,415.1,170.9,417.2,170.9z"/>
	<path style="&st2;" d="M523.4,151.5c0,10.5-2.3,19-6.9,25.5c-4.6,6.4-11,9.6-19.3,9.6c-3.2,0-6.1-0.6-8.6-1.9
		c-2.5-1.3-4.7-3.2-6.6-5.8v36.6h-20.8V105.8h19.3l0.7,7.8c1.9-3,4.2-5.3,6.8-6.9c2.6-1.6,5.6-2.4,9-2.4c8.3,0,14.8,3.4,19.4,10.3
		c4.6,6.9,6.9,15.9,6.9,27.1V151.5z M502.6,141.7c0-6.3-0.9-11.3-2.6-15.1s-4.5-5.7-8.3-5.7c-2.2,0-4.1,0.6-5.7,1.7
		c-1.6,1.1-2.9,2.7-3.9,4.7v37.4c1,1.8,2.3,3.1,3.8,4c1.6,0.9,3.5,1.3,5.8,1.3c3.9,0,6.6-1.6,8.3-4.9s2.5-7.8,2.5-13.6V141.7z"/>
	<path style="&st2;" d="M596.3,151.5c0,10.5-2.3,19-6.9,25.5c-4.6,6.4-11,9.6-19.3,9.6c-3.2,0-6.1-0.6-8.6-1.9
		c-2.5-1.3-4.7-3.2-6.6-5.8v36.6h-20.8V105.8h19.3l0.7,7.8c1.9-3,4.2-5.3,6.8-6.9c2.6-1.6,5.6-2.4,9-2.4c8.3,0,14.8,3.4,19.4,10.3
		c4.6,6.9,6.9,15.9,6.9,27.1V151.5z M575.5,141.7c0-6.3-0.9-11.3-2.6-15.1s-4.5-5.7-8.3-5.7c-2.2,0-4.1,0.6-5.7,1.7
		c-1.6,1.1-2.9,2.7-3.9,4.7v37.4c1,1.8,2.3,3.1,3.8,4c1.6,0.9,3.5,1.3,5.8,1.3c3.9,0,6.6-1.6,8.3-4.9s2.5-7.8,2.5-13.6V141.7z"/>
	<path style="&st2;" d="M645.7,185c-0.6-1.3-1.1-2.8-1.6-4.3c-0.5-1.6-0.8-3.1-1.1-4.8c-2,3.2-4.3,5.8-7.1,7.7
		c-2.8,1.9-6.1,2.9-9.8,2.9c-6.5,0-11.8-2.1-15.7-6.4c-3.9-4.3-5.9-10-5.9-17.2c0-7.8,2.5-13.8,7.5-18.1c5-4.3,12.4-6.4,22.3-6.4
		h7.8v-6.4c0-3.9-0.7-6.8-2.1-8.9c-1.4-2.1-3.5-3.1-6.3-3.1c-2.3,0-4.1,0.8-5.3,2.5c-1.2,1.7-1.8,4.1-1.8,7.3l-20.1-0.1l-0.2-0.4
		c-0.2-6.9,2.3-12.7,7.7-17.6s12.4-7.3,21.1-7.3c8.3,0,15,2.4,20.1,7.2c5.2,4.8,7.7,11.7,7.7,20.5v32.1c0,3.9,0.3,7.5,0.8,10.9
		c0.5,3.4,1.4,6.7,2.5,10H645.7z M632.1,170.9c2.1,0,4-0.6,5.8-1.7c1.8-1.1,3.2-2.6,4.2-4.3v-14.6h-7.8c-3.2,0-5.5,1.1-6.9,3.3
		c-1.4,2.2-2.1,5-2.1,8.3c0,2.6,0.6,4.8,1.8,6.4C628.4,170,630,170.9,632.1,170.9z"/>
	<path style="&st2;" d="M713.6,124.7l-7.8-0.2c-2.2,0-4,0.5-5.5,1.6c-1.4,1.1-2.6,2.6-3.3,4.5V185h-20.8v-79.2h19.4l0.8,10.6
		l0.4,0.1c1.3-3.8,3-6.8,5.3-9s4.9-3.3,7.9-3.3c0.9,0,1.9,0.1,3,0.3c1,0.2,2,0.4,2.7,0.6L713.6,124.7z"/>
	<path style="&st2;" d="M762.8,185c-0.6-1.3-1.1-2.8-1.6-4.3c-0.5-1.6-0.8-3.1-1.1-4.8c-2,3.2-4.3,5.8-7.1,7.7
		c-2.8,1.9-6.1,2.9-9.8,2.9c-6.5,0-11.8-2.1-15.7-6.4c-3.9-4.3-5.9-10-5.9-17.2c0-7.8,2.5-13.8,7.5-18.1c5-4.3,12.4-6.4,22.3-6.4
		h7.8v-6.4c0-3.9-0.7-6.8-2.1-8.9c-1.4-2.1-3.5-3.1-6.3-3.1c-2.3,0-4.1,0.8-5.3,2.5c-1.2,1.7-1.8,4.1-1.8,7.3l-20.1-0.1l-0.2-0.4
		c-0.2-6.9,2.3-12.7,7.7-17.6s12.4-7.3,21.1-7.3c8.3,0,15,2.4,20.1,7.2c5.2,4.8,7.7,11.7,7.7,20.5v32.1c0,3.9,0.3,7.5,0.8,10.9
		c0.5,3.4,1.4,6.7,2.5,10H762.8z M749.2,170.9c2.1,0,4-0.6,5.8-1.7c1.8-1.1,3.2-2.6,4.2-4.3v-14.6h-7.8c-3.2,0-5.5,1.1-6.9,3.3
		c-1.4,2.2-2.1,5-2.1,8.3c0,2.6,0.6,4.8,1.8,6.4C745.5,170,747.1,170.9,749.2,170.9z"/>
	<path style="&st2;" d="M818.1,86v19.7h11v15.1h-11v39.8c0,3.2,0.5,5.5,1.4,6.9c0.9,1.4,2.2,2.1,3.8,2.1c1.3,0,2.3-0.1,3.2-0.2
		c0.9-0.1,1.9-0.3,2.9-0.6l1.6,15.8c-2.2,0.7-4.3,1.2-6.3,1.5c-2,0.3-4.3,0.4-6.8,0.4c-6.7,0-11.8-2.1-15.3-6.2
		c-3.5-4.1-5.3-10.7-5.3-19.7v-39.8h-9.4v-15.1h9.4V86H818.1z"/>
	<path style="&st2;" d="M881,175.8c-2.1,3.5-4.7,6.1-7.8,7.9c-3.1,1.8-6.5,2.7-10.4,2.7c-7.1,0-12.6-2.7-16.6-8
		c-4-5.3-6-13.6-6-24.9v-47.9h20.8v48.1c0,5.6,0.7,9.7,2.1,12.2c1.4,2.5,3.4,3.8,6.1,3.8c2.3,0,4.3-0.4,6-1.3
		c1.7-0.9,3.2-2.1,4.4-3.8v-59.1h20.9V185h-18.3L881,175.8z"/>
	<path style="&st2;" d="M948.2,164.3c0-2.2-0.9-4.2-2.6-5.8c-1.8-1.6-5.1-3.6-10.1-6c-8-3-13.9-6.3-17.9-10.1c-4-3.8-6-8.6-6-14.6
		c0-6.4,2.6-12,7.7-16.5c5.1-4.6,11.9-6.8,20.3-6.8c8.8,0,15.8,2.3,21,7c5.2,4.7,7.7,10.7,7.5,17.9l-0.2,0.4h-20.1
		c0-3.3-0.7-6-2.1-7.9c-1.4-2-3.5-2.9-6.3-2.9c-2.2,0-4.2,0.8-5.7,2.3c-1.6,1.5-2.3,3.3-2.3,5.5c0,2.3,0.8,4.2,2.3,5.7
		c1.6,1.4,5,3.4,10.2,5.9c8.3,2.8,14.5,6.2,18.5,10.1c4,3.9,6,9,6,15.3c0,6.7-2.7,12.3-8.1,16.6c-5.4,4.3-12.4,6.4-21.2,6.4
		c-9.1,0-16.4-2.7-21.7-8c-5.3-5.3-7.9-11.3-7.6-18l0.1-0.4h19c0.1,4.2,1.1,7.2,2.9,9.1c1.9,1.9,4.4,2.8,7.7,2.8
		c2.8,0,4.9-0.7,6.4-2.1C947.4,168.5,948.2,166.7,948.2,164.3z"/>
</g>
</svg>
