<?xml version="1.0" encoding="utf-8"?>
<!-- Generator: Adobe Illustrator 18.0.0, SVG Export Plug-In . SVG Version: 6.00 Build 0)  -->
<!DOCTYPE svg PUBLIC "-//W3C//DTD SVG 1.1//EN" "http://www.w3.org/Graphics/SVG/1.1/DTD/svg11.dtd" [
	<!ENTITY st0 "fill:#333333;">
	<!ENTITY st1 "enable-background:new    ;">
	<!ENTITY st2 "fill:#FFFFFF;">
]>
<svg version="1.1" id="Layer_1" xmlns="http://www.w3.org/2000/svg" xmlns:xlink="http://www.w3.org/1999/xlink" x="0px" y="0px"
	 viewBox="0 0 1024 256" style="enable-background:new 0 0 1024 256;" xml:space="preserve">
<rect style="&st0;" width="1024" height="256"/>
<g style="&st1;">
	<path style="&st2;" d="M240.7,157.2c0-4.1-1.1-7.4-3.2-9.9c-2.1-2.4-5.9-4.8-11.4-7.1c-11.1-3.9-19.4-8.2-24.9-13.1
		c-5.5-4.9-8.3-11.8-8.3-20.6c0-8.7,3.2-15.9,9.7-21.4c6.4-5.5,14.7-8.2,24.7-8.2c10.2,0,18.4,3.1,24.8,9.2
		c6.3,6.1,9.4,13.9,9.2,23.2l-0.1,0.4h-20.2c0-4.9-1.2-8.8-3.7-11.9c-2.4-3-5.9-4.5-10.3-4.5c-4.2,0-7.4,1.3-9.7,3.8
		c-2.3,2.5-3.5,5.7-3.5,9.5c0,3.5,1.3,6.4,3.9,8.7c2.6,2.3,7.1,4.8,13.5,7.6c10.1,3.4,17.7,7.8,22.8,13c5.1,5.3,7.7,12.3,7.7,21.3
		c0,9.2-3.1,16.5-9.2,21.7c-6.2,5.2-14.3,7.8-24.5,7.8c-10.2,0-19-3-26.4-8.9c-7.4-5.9-11-14.4-10.8-25.5l0.1-0.4H211
		c0,6.6,1.4,11.3,4.2,14.2c2.8,2.9,7,4.3,12.6,4.3c4.4,0,7.7-1.2,9.8-3.5S240.7,161.2,240.7,157.2z"/>
	<path style="&st2;" d="M292.7,105.8l0.8,10.1c2.1-3.7,4.7-6.6,7.9-8.6c3.2-2,6.8-3,10.9-3c4,0,7.5,1.1,10.5,3.2
		c3,2.1,5.2,5.4,6.8,9.7c2.1-4.1,4.7-7.3,7.9-9.5c3.2-2.2,7-3.4,11.3-3.4c6.5,0,11.7,2.7,15.5,8.1c3.8,5.4,5.7,13.6,5.7,24.7V185
		h-20.9v-48c0-6.1-0.7-10.3-2-12.6s-3.4-3.5-6.2-3.5c-2,0-3.8,0.6-5.3,1.8c-1.6,1.2-2.9,2.8-3.9,4.8c0,0.9,0.1,1.8,0.1,2.8
		c0,0.9,0.1,1.8,0.1,2.8V185h-20.7v-48c0-6.1-0.7-10.3-2-12.6c-1.3-2.3-3.4-3.5-6.3-3.5c-1.9,0-3.6,0.5-5.1,1.4
		c-1.5,1-2.8,2.3-3.8,4V185h-20.7v-79.2H292.7z"/>
	<path style="&st2;" d="M381.1,140.5c0-10.6,2.8-19.3,8.5-26.1s13.5-10.1,23.7-10.1c10.2,0,18.1,3.4,23.7,10.1
		c5.7,6.8,8.5,15.5,8.5,26.1v9.8c0,10.7-2.8,19.5-8.5,26.1c-5.7,6.7-13.5,10-23.7,10c-10.2,0-18.1-3.3-23.8-10
		c-5.6-6.7-8.5-15.4-8.5-26.1V140.5z M401.8,150.3c0,6.1,0.9,10.9,2.6,14.4c1.7,3.5,4.7,5.2,8.9,5.2c4.1,0,7-1.7,8.8-5.2
		c1.7-3.5,2.6-8.3,2.6-14.3v-9.8c0-6-0.9-10.7-2.6-14.3c-1.7-3.5-4.7-5.3-8.8-5.3c-4.2,0-7.1,1.8-8.8,5.4c-1.7,3.6-2.6,8.3-2.6,14.2
		V150.3z"/>
	<path style="&st2;" d="M454,140.5c0-10.6,2.8-19.3,8.5-26.1s13.5-10.1,23.7-10.1c10.2,0,18.1,3.4,23.7,10.1
		c5.7,6.8,8.5,15.5,8.5,26.1v9.8c0,10.7-2.8,19.5-8.5,26.1c-5.7,6.7-13.5,10-23.7,10c-10.2,0-18.1-3.3-23.8-10
		c-5.6-6.7-8.5-15.4-8.5-26.1V140.5z M474.7,150.3c0,6.1,0.9,10.9,2.6,14.4c1.7,3.5,4.7,5.2,8.9,5.2c4.1,0,7-1.7,8.8-5.2
		c1.7-3.5,2.6-8.3,2.6-14.3v-9.8c0-6-0.9-10.7-2.6-14.3c-1.7-3.5-4.7-5.3-8.8-5.3c-4.2,0-7.1,1.8-8.8,5.4c-1.7,3.6-2.6,8.3-2.6,14.2
		V150.3z"/>
	<path style="&st2;" d="M554.1,86v19.7h11v15.1h-11v39.8c0,3.2,0.5,5.5,1.4,6.9c0.9,1.4,2.2,2.1,3.8,2.1c1.3,0,2.3-0.1,3.2-0.2
		c0.9-0.1,1.9-0.3,2.9-0.6l1.6,15.8c-2.2,0.7-4.3,1.2-6.3,1.5c-2,0.3-4.3,0.4-6.8,0.4c-6.7,0-11.8-2.1-15.3-6.2
		c-3.5-4.1-5.3-10.7-5.3-19.7v-39.8h-9.4v-15.1h9.4V86H554.1z"/>
	<path style="&st2;" d="M597,115.2c2.1-3.5,4.5-6.2,7.4-8.1c2.9-1.9,6.1-2.9,9.5-2.9c7,0,12.5,2.8,16.6,8.4c4,5.6,6,14.2,6,25.9V185
		h-20.9v-46.6c0-6.5-0.8-11.1-2.3-13.6c-1.5-2.5-3.9-3.8-7.2-3.8c-2,0-3.7,0.4-5.2,1.3c-1.5,0.9-2.8,2-3.9,3.6V185h-20.8V70.7H597
		V115.2z"/>
	<path style="&st2;" d="M740.6,138.2h-35.8v30.2h42.1V185h-63V78.4h62.8V95h-42v26.6h35.8V138.2z"/>
	<path style="&st2;" d="M778.6,142.6V185h-20.8V78.4h34.8c10.5,0,18.7,2.8,24.7,8.3c6,5.5,9,13.2,9,23.1c0,5.6-1.2,10.4-3.7,14.4
		c-2.5,4-6.1,7.2-10.9,9.6c5.5,1.9,9.4,4.9,11.8,9.2c2.4,4.3,3.6,9.7,3.6,16.1v7.5c0,2.9,0.3,6.1,1,9.4c0.7,3.3,1.9,5.8,3.6,7.3v1.5
		h-21.5c-1.7-1.6-2.8-4.1-3.2-7.6s-0.7-7.1-0.7-10.8v-7.3c0-5.3-1.1-9.4-3.3-12.4c-2.2-2.9-5.3-4.4-9.3-4.4H778.6z M778.6,126h13.9
		c4.2,0,7.5-1.3,9.7-3.9c2.2-2.6,3.3-6.3,3.3-11.1c0-4.9-1.1-8.8-3.3-11.6c-2.2-2.9-5.4-4.3-9.6-4.3h-14V126z"/>
</g>
</svg>
