<?xml version="1.0" encoding="utf-8"?>
<!-- Generator: Adobe Illustrator 18.0.0, SVG Export Plug-In . SVG Version: 6.00 Build 0)  -->
<!DOCTYPE svg PUBLIC "-//W3C//DTD SVG 1.1//EN" "http://www.w3.org/Graphics/SVG/1.1/DTD/svg11.dtd" [
	<!ENTITY st0 "fill:#333333;">
	<!ENTITY st1 "enable-background:new    ;">
	<!ENTITY st2 "fill:#FFFFFF;">
]>
<svg version="1.1" id="Layer_1" xmlns="http://www.w3.org/2000/svg" xmlns:xlink="http://www.w3.org/1999/xlink" x="0px" y="0px"
	 viewBox="0 0 1024 256" style="enable-background:new 0 0 1024 256;" xml:space="preserve">
<rect style="&st0;" width="1024" height="256"/>
<g style="&st1;">
	<path style="&st2;" d="M356,185h-20.7l-32.6-68.2l-0.4,0.1v68h-20.9V78.4h20.9l32.6,68.1l0.4-0.1v-68H356V185z"/>
	<path style="&st2;" d="M411.2,175.8c-2.1,3.5-4.7,6.1-7.8,7.9c-3.1,1.8-6.5,2.7-10.4,2.7c-7.1,0-12.6-2.7-16.6-8
		c-4-5.3-6-13.6-6-24.9v-47.9h20.8v48.1c0,5.6,0.7,9.7,2.1,12.2c1.4,2.5,3.4,3.8,6.1,3.8c2.3,0,4.3-0.4,6-1.3
		c1.7-0.9,3.2-2.1,4.4-3.8v-59.1h20.9V185h-18.3L411.2,175.8z"/>
	<path style="&st2;" d="M472.8,169.9c2.8,0,5-1,6.4-3.1c1.4-2.1,2.2-5.1,2.2-9.1h18.9l0.2,0.4c0.1,8.3-2.4,15.1-7.7,20.4
		c-5.2,5.3-11.9,8-20,8c-10.3,0-18.1-3.3-23.6-10c-5.5-6.7-8.2-15.3-8.2-25.9v-10.2c0-10.5,2.7-19.2,8.2-26
		c5.5-6.8,13.3-10.1,23.5-10.1c8.6,0,15.4,2.8,20.5,8.3c5.1,5.5,7.5,13,7.4,22.3l-0.1,0.4h-19c0-4.3-0.7-7.8-2.2-10.4
		c-1.4-2.6-3.6-3.9-6.6-3.9c-4.2,0-7,1.8-8.6,5.3c-1.6,3.5-2.3,8.2-2.3,14.2v10.2c0,6.1,0.8,10.8,2.3,14.2
		C465.6,168.2,468.5,169.9,472.8,169.9z"/>
	<path style="&st2;" d="M532.3,185h-20.8V70.7h20.8V185z"/>
	<path style="&st2;" d="M577.6,186.5c-10,0-17.9-3.3-23.7-9.8c-5.9-6.5-8.8-14.8-8.8-24.8v-11.1c0-10.7,2.7-19.5,8.2-26.3
		c5.4-6.8,13-10.3,22.6-10.3c9.3,0,16.5,3.1,21.5,9.3c5.1,6.2,7.6,14.6,7.6,25.3v12.7h-39.2v0.3c0,5.2,1.2,9.5,3.6,12.9
		c2.4,3.4,5.9,5.1,10.7,5.1c3.9,0,7.1-0.4,9.5-1.3c2.4-0.9,5.3-2.3,8.7-4.4l5.3,13.3c-2.7,2.6-6.4,4.8-11,6.5
		C588.1,185.7,583.1,186.5,577.6,186.5z M575.8,120.9c-3.3,0-5.8,1.5-7.3,4.6c-1.6,3-2.4,7.1-2.6,12.3h18.7v-2.9
		c0-4.4-0.7-7.8-2.1-10.3C581.1,122.1,578.9,120.9,575.8,120.9z"/>
	<path style="&st2;" d="M655.7,175.8c-2.1,3.5-4.8,6.1-7.8,7.9c-3.1,1.8-6.5,2.7-10.4,2.7c-7.1,0-12.6-2.7-16.6-8
		c-4-5.3-6-13.6-6-24.9v-47.9h20.8v48.1c0,5.6,0.7,9.7,2.1,12.2c1.4,2.5,3.4,3.8,6.1,3.8c2.3,0,4.3-0.4,6-1.3
		c1.7-0.9,3.2-2.1,4.4-3.8v-59.1h20.9V185h-18.3L655.7,175.8z"/>
	<path style="&st2;" d="M722.8,164.3c0-2.2-0.9-4.2-2.6-5.8c-1.8-1.6-5.1-3.6-10.1-6c-8-3-13.9-6.3-17.9-10.1c-4-3.8-6-8.6-6-14.6
		c0-6.4,2.6-12,7.7-16.5c5.1-4.6,11.9-6.8,20.3-6.8c8.8,0,15.8,2.3,21,7c5.2,4.7,7.7,10.7,7.5,17.9l-0.2,0.4h-20.1
		c0-3.3-0.7-6-2.1-7.9c-1.4-2-3.5-2.9-6.3-2.9c-2.2,0-4.2,0.8-5.7,2.3c-1.6,1.5-2.3,3.3-2.3,5.5c0,2.3,0.8,4.2,2.3,5.7
		c1.6,1.4,5,3.4,10.2,5.9c8.3,2.8,14.5,6.2,18.5,10.1c4,3.9,6,9,6,15.3c0,6.7-2.7,12.3-8.1,16.6c-5.4,4.3-12.4,6.4-21.2,6.4
		c-9.1,0-16.4-2.7-21.7-8c-5.3-5.3-7.9-11.3-7.6-18l0.1-0.4h19c0.1,4.2,1.1,7.2,2.9,9.1c1.9,1.9,4.4,2.8,7.7,2.8
		c2.8,0,4.9-0.7,6.4-2.1C722.1,168.5,722.8,166.7,722.8,164.3z"/>
</g>
</svg>
