<?xml version="1.0" encoding="UTF-8"?>
<!-- Generator: Adobe Illustrator 17.1.0, SVG Export Plug-In . SVG Version: 6.00 Build 0)  -->
<!DOCTYPE svg PUBLIC "-//W3C//DTD SVG 1.1//EN" "http://www.w3.org/Graphics/SVG/1.1/DTD/svg11.dtd">
<svg version="1.1" id="Layer_1" xmlns="http://www.w3.org/2000/svg" xmlns:xlink="http://www.w3.org/1999/xlink" x="0px" y="0px" viewBox="-3.1 0 73.6 46" enable-background="new -3.1 0 73.6 46" xml:space="preserve">
<g>
	<path fill="#2D2D2D" d="M33.7,40c0,3.3-2.7,6-6,6H2.9c-3.3,0-6-2.7-6-6V6c0-3.3,2.7-6,6-6h24.8c3.3,0,6,2.7,6,6V40z"/>
</g>
<g>
	<path fill="#2D2D2D" d="M70.5,40c0,3.3-2.7,6-6,6H39.7c-3.3,0-6-2.7-6-6V6c0-3.3,2.7-6,6-6h24.8c3.3,0,6,2.7,6,6V40z"/>
</g>
<g>
	<g id="Ellipse_2_copy_2">
		<g>
			<circle fill="#FFFFFF" cx="10.1" cy="12" r="3.2"/>
		</g>
	</g>
	<path fill="#FFFFFF" d="M22.5,38.6c-0.1,0-0.1,0-0.2,0V29c0,0,0-0.1,0-0.1c0,0,0-0.1,0-0.1c0-0.1,0-0.1,0-0.2   c-0.2-1-1.1-1.7-2.2-1.7h-5.5L12.7,18c-0.3-1.3-1.6-2.1-2.9-1.8l-0.4,0.1c-1.3,0.3-2.1,1.6-1.8,2.9l2.2,10.3   c0.3,1.3,1.5,2.1,2.7,1.9h6.5v7.6c0,0,0,0,0,0c0,0.2,0,0.3,0,0.5c0,0.2,0,0.5,0,0.7c0,0.5,0.3,0.8,0.8,0.8c1.6,0,1,0,2.7,0   c0.7,0,1.1-0.5,1.2-1.1C23.7,39.1,23.2,38.7,22.5,38.6z"/>
</g>
<g>
	<g id="Ellipse_2_copy_2_1_">
		<g>
			<circle fill="#FFFFFF" cx="52.1" cy="8.4" r="3.2"/>
		</g>
	</g>
	<path fill="#FFFFFF" d="M53.9,38.6c0-0.2,0-0.4,0-0.5c0-4,0-7.9,0-11.9c0-0.3,0.1-0.5,0.3-0.7c0.5-0.5,0.8-1.2,0.8-1.9   c0-2.8,0-5.6,0-8.4c0-1.6-1.3-2.8-2.9-2.8c-1.6,0-2.6,0.7-3,2c-0.1,0.3-0.1,0.7-0.1,1.1c0,2.6,0,5.2,0,7.8c0,0.9,0.2,1.7,0.9,2.3   c0.1,0.1,0.1,0.3,0.1,0.5c0,4.4,0,8.8,0,13.1c0,0.2,0,0.5,0,0.7c0,0.5,0.3,0.8,0.8,0.8c1.6,0,1.8,0,3.4,0c0.7,0,1.1-0.5,1.2-1.1   c0-0.6-0.5-1.1-1.2-1.1C53.9,38.6,53.9,38.6,53.9,38.6z"/>
</g>
</svg>